<svg width="256" height="256" viewBox="0 0 256 256" fill="none" xmlns="http://www.w3.org/2000/svg">
<path d="M117.225 0.450102C64.2945 4.80935 18.6985 42.5553 4.69654 93.6868C-7.66414 138.715 4.74783 185.846 37.5216 218.669C57.9346 239.029 82.8099 251.235 112.455 255.389C119.123 256.312 138.766 256.159 145.69 255.133C174.412 250.774 198.621 238.67 218.623 218.618C229.445 207.848 236.626 197.745 243.242 184.257C249.294 171.897 252.987 159.896 255.141 145.69C256.167 138.664 256.321 119.176 255.346 112.201C251.295 82.6604 238.831 57.5819 218.162 37.0678C191.44 10.6046 154.871 -2.6783 117.225 0.450102ZM141.433 8.65575C170.925 11.4764 200.518 27.2723 220.06 50.6071C249.807 86.0453 256.731 134.818 238.062 176.974C226.163 203.796 203.801 226.157 176.977 238.055C138.612 255.082 94.2473 250.876 59.5246 226.977C51.1645 221.233 40.7528 211.438 34.1365 203.232C20.391 186.052 11.0564 163.383 8.59451 141.433C7.77389 134.151 7.87646 120.406 8.79967 113.175C13.2618 78.4038 32.444 47.4274 61.6787 27.8877C69.0131 22.9643 81.4251 16.9127 89.8878 14.1433C106.967 8.50189 122.456 6.86076 141.433 8.65575Z" fill="#D50000"/>
<path d="M24.6982 172.563C28.1346 180.615 28.1858 180.717 31.7761 181.897C36.4434 183.384 40.3414 184 47.3167 184.359C54.9588 184.718 60.2415 184.051 68.6017 181.589C74.3973 179.948 75.7822 179.743 82.8088 179.538C92.4511 179.23 96.7081 179.999 105.12 183.538C108.453 184.923 112.915 186.513 115.121 187.077C122.917 189.025 134.662 188.923 142.612 186.82C144.202 186.41 148.767 184.769 152.665 183.23C161.691 179.64 167.436 178.666 177.078 179.025C182.617 179.281 185.079 179.64 191.901 181.384C201.543 183.846 208.313 184.461 217.34 183.538C227.136 182.564 226.726 182.769 229.752 176.512C231.188 173.589 232.265 171.076 232.163 170.922C232.009 170.819 230.06 171.281 227.854 171.999C225.598 172.717 221.084 173.64 217.853 174.101C209.288 175.23 203.595 174.768 193.234 172.101C186.644 170.383 181.038 169.917 174.257 169.947C164.666 169.999 163.333 170.101 158.819 171.281C156.101 172.05 151.485 173.589 148.561 174.768C141.176 177.794 139.381 178.256 133.329 178.922C124.404 179.897 116.916 178.615 107.889 174.563C96.7594 169.537 81.2188 168.46 68.8581 171.947C58.2926 174.871 57.7797 174.973 50.1376 174.973C41.4184 174.973 37.1614 174.153 29.3655 171.076C26.5446 169.947 23.9288 168.922 23.5698 168.768C23.2108 168.614 23.7237 170.255 24.6982 172.563Z" fill="#283593"/>
<path d="M179.633 201.335H75.7267V225.532H179.633V201.335Z" fill="#283593"/>
<path d="M76.3986 189.129C74.6035 189.386 70.1413 190.412 66.4998 191.437C57.7806 193.848 52.4978 194.463 45.2661 193.745C42.1887 193.489 38.8549 193.027 37.8804 192.719C36.906 192.463 35.9827 192.309 35.8802 192.463C35.7776 192.566 37.2137 194.668 39.1627 197.13C62.2428 226.722 97.8887 242.723 135.381 240.363C151.229 239.389 164.872 235.696 178.874 228.568C193.799 221.029 207.288 209.849 217.29 196.873L220.521 192.668L218.828 192.925C210.417 194.207 203.134 193.643 192.568 190.822C186.296 189.15 180.946 188.873 174.515 188.873C161.949 188.873 159.179 189.386 148.357 193.745C139.997 197.13 136.099 197.95 128.098 197.95C120.097 197.95 116.814 197.232 108.506 193.694C105.172 192.309 100.402 190.668 97.94 190.155C92.7598 188.976 81.271 188.463 76.3986 189.129ZM91.016 216.054L91.5802 214.003C91.8879 212.875 92.5034 210.31 92.965 208.361C94.2985 202.258 94.0933 202.464 98.8632 202.464H102.966V223.542L96.5552 223.234V216.721C96.5552 213.182 96.4526 210.362 96.35 210.464C96.2475 210.567 95.4268 213.49 94.5549 216.977L92.965 223.234L91.0673 223.388C88.9131 223.593 89.2721 224.26 86.8616 214.516L85.6306 209.387L85.528 223.542L79.1169 223.234L78.963 213.49C78.9117 208.156 78.963 203.489 79.1169 203.079C79.2708 202.617 80.4504 202.464 83.5278 202.566L87.7335 202.72L91.016 216.054ZM112.763 223.234L106.557 223.542V202.412L112.763 202.72V223.234ZM134.766 209.131H122.969V216.823H134.766V223.542L119.276 223.234L117.789 221.542C116.797 220.448 116.302 217.61 116.302 213.028C116.302 206.823 116.404 206.054 117.379 204.823C119.02 202.72 119.943 202.515 127.739 202.515L134.766 202.464V209.131ZM156.051 208.874L143.998 209.182V216.772L156.051 217.08V223.234H140.407L139.023 221.798C138.065 220.875 137.587 217.952 137.587 213.028C137.587 206.361 137.689 205.541 138.612 204.515C140.254 202.72 141.279 202.515 148.87 202.617L156.051 202.72V208.874ZM176.053 203.182C176.977 203.592 178.002 204.361 178.31 204.925C178.618 205.541 178.874 208.977 178.874 213.08C178.874 223.234 178.361 223.696 168.104 223.388C162 223.234 161.846 223.183 160.615 221.798C159.436 220.413 159.384 220.054 159.384 213.028C159.384 206.413 159.487 205.541 160.41 204.361C161.692 202.771 162.308 202.617 169.027 202.515C172.566 202.464 174.874 202.72 176.053 203.182Z" fill="#283593"/>
</svg>
