<svg width="48" height="48" viewBox="0 0 48 48" fill="none" xmlns="http://www.w3.org/2000/svg">
<path d="M23.9992 19.5V6.75C23.9992 5.75544 23.6042 4.80161 22.9009 4.09835C22.1976 3.39509 21.2438 3 20.2492 3C19.2547 3 18.3009 3.39509 17.5976 4.09835C16.8943 4.80161 16.4992 5.75544 16.4992 6.75V29.4874L12.3878 22.3662C12.1418 21.9393 11.8141 21.5651 11.4234 21.2649C11.0327 20.9647 10.5866 20.7444 10.1108 20.6167C9.63488 20.489 9.13849 20.4563 8.64998 20.5205C8.16146 20.5847 7.69038 20.7445 7.26367 20.9909C6.83696 21.2373 6.46299 21.5653 6.16312 21.9563C5.86325 22.3472 5.64337 22.7935 5.51604 23.2694C5.38872 23.7454 5.35644 24.2418 5.42106 24.7303C5.48568 25.2188 5.64593 25.6897 5.89265 26.1162C11.9992 39 15.715 43.5 23.9992 43.5C25.9691 43.5 27.9196 43.112 29.7395 42.3582C31.5594 41.6044 33.213 40.4995 34.6058 39.1066C35.9987 37.7137 37.1036 36.0601 37.8574 34.2403C38.6113 32.4204 38.9992 30.4698 38.9992 28.5V21C38.9992 20.0054 38.6042 19.0516 37.9009 18.3483C37.1976 17.6451 36.2438 17.25 35.2492 17.25C34.2547 17.25 33.3009 17.6451 32.5976 18.3483C31.8943 19.0516 31.4992 20.0054 31.4992 21" stroke="white" stroke-width="2" stroke-linecap="round" stroke-linejoin="round"/>
<path d="M31.5 21V18.75C31.5 17.7554 31.1049 16.8016 30.4017 16.0983C29.6984 15.3951 28.7446 15 27.75 15C26.7554 15 25.8016 15.3951 25.0983 16.0983C24.3951 16.8016 24 17.7554 24 18.75V19.5" stroke="white" stroke-width="2" stroke-linecap="round" stroke-linejoin="round"/>
</svg>
