<svg width="22" height="3" viewBox="0 0 22 3" fill="none" xmlns="http://www.w3.org/2000/svg">
<path d="M0.131032 0.579078C0.493251 1.80443 0.498657 1.82004 0.877094 1.99955C1.36906 2.22589 1.77994 2.31955 2.51519 2.37419C3.32072 2.42882 3.87756 2.32736 4.75878 1.95272C5.36968 1.70297 5.51565 1.67175 6.25631 1.64053C7.27268 1.5937 7.7214 1.71078 8.60802 2.24931C8.95943 2.46004 9.42977 2.70199 9.66224 2.78784C10.484 3.08442 11.722 3.06881 12.56 2.74882C12.7276 2.68638 13.2087 2.43662 13.6196 2.20248C14.5711 1.65614 15.1766 1.50785 16.193 1.56248C16.7769 1.60151 17.0364 1.65614 17.7554 1.9215C18.7718 2.29614 19.4854 2.3898 20.4369 2.24931C21.4695 2.10102 21.4262 2.13224 21.7452 1.18005C21.8966 0.735173 22.0101 0.352737 21.9993 0.329322C21.9831 0.313713 21.7776 0.383957 21.5452 0.493224C21.3073 0.602491 20.8315 0.742979 20.4909 0.813222C19.5881 0.984928 18.988 0.914683 17.8959 0.508832C17.2012 0.247371 16.6103 0.176348 15.8956 0.181031C14.8847 0.188836 14.7441 0.204446 14.2684 0.383957C13.9818 0.501029 13.4953 0.735173 13.1871 0.914684C12.4086 1.37517 12.2194 1.44541 11.5815 1.54687C10.6408 1.69517 9.85146 1.50005 8.89996 0.883465C7.7268 0.118593 6.08871 -0.045309 4.78581 0.485419C3.67212 0.930293 3.61806 0.945903 2.81253 0.945903C1.89347 0.945903 1.44475 0.821025 0.623 0.352736C0.325657 0.18103 0.0499386 0.0249335 0.0120949 0.001519C-0.0257488 -0.0218955 0.0283136 0.227861 0.131032 0.579078Z" fill="#283593"/>
</svg>
